<?xml version="1.0" encoding="utf-8"?>
<!-- Generator: Adobe Illustrator 19.0.0, SVG Export Plug-In . SVG Version: 6.00 Build 0)  -->
<svg version="1.1" id="Calque_1" xmlns="http://www.w3.org/2000/svg" xmlns:xlink="http://www.w3.org/1999/xlink" x="0px" y="0px"
	 viewBox="0 0 99.7 106" style="enable-background:new 0 0 99.7 106;" xml:space="preserve">
<style type="text/css">
	.st0{clip-path:url(#XMLID_99_);fill:#1D1D1B;}
	.st1{clip-path:url(#XMLID_99_);fill:none;stroke:#1D1D1B;stroke-miterlimit:10;}
</style>
<g>
	<defs>
		<rect id="XMLID_79_" x="3.6" y="7.4" width="92.6" height="91.2"/>
	</defs>
	<clipPath id="XMLID_99_">
		<use xlink:href="#XMLID_79_"  style="overflow:visible;"/>
	</clipPath>
	<path class="st0" d="M84.9,58.1H66.4v16.8h18.5V58.1z M33.7,58.1H15.2v16.8h18.5V58.1z M38.4,91.7h23.1V58H38.4V91.7z M93.6,98.1
		H6.8v-5.9c1.5-0.2,2.6-0.3,3.9-0.5v-3.9c0-11.2,0.1-22.5-0.1-33.7c0-3.5-0.1-6.5,4.3-7.2c0.8-0.1,1.5-0.9,2.4-1.5
		c4.3,3.7,8.7,3.4,13-0.1c4.4,3.8,8.7,3.6,13.1,0c4.4,3.7,8.7,3.6,12.9,0C61.7,49,63,49,69,45.9c2.7,0.8,5,2.1,7.2,2
		c2.2-0.1,4.4-1.4,6.4-2.1c2.2,1,4.5,2,7,3.1v42.9c1.4,0.1,2.5,0.3,4,0.4V98.1z"/>
	<path class="st1" d="M84.9,58.1H66.4v16.8h18.5V58.1z M33.7,58.1H15.2v16.8h18.5V58.1z M38.4,91.7h23.1V58H38.4V91.7z M93.6,98.1
		H6.8v-5.9c1.5-0.2,2.6-0.3,3.9-0.5v-3.9c0-11.2,0.1-22.5-0.1-33.7c0-3.5-0.1-6.5,4.3-7.2c0.8-0.1,1.5-0.9,2.4-1.5
		c4.3,3.7,8.7,3.4,13-0.1c4.4,3.8,8.7,3.6,13.1,0c4.4,3.7,8.7,3.6,12.9,0C61.7,49,63,49,69,45.9c2.7,0.8,5,2.1,7.2,2
		c2.2-0.1,4.4-1.4,6.4-2.1c2.2,1,4.5,2,7,3.1v42.9c1.4,0.1,2.5,0.3,4,0.4V98.1z"/>
	<path id="XMLID_89_" class="st0" d="M23.7,7.9c-2,9.1-4,18.3-6,27.4c-0.3,1.3-0.6,2.7-0.7,4c-0.1,3.5-1.9,5.8-5.2,6.5
		c-3.2,0.7-5.6-0.8-7.2-3.7c-0.1-0.3-0.4-0.5-0.6-0.8v-4.1c3.2-9.8,6.3-19.5,9.5-29.3H23.7z"/>
	<path id="XMLID_88_" class="st1" d="M23.7,7.9c-2,9.1-4,18.3-6,27.4c-0.3,1.3-0.6,2.7-0.7,4c-0.1,3.5-1.9,5.8-5.2,6.5
		c-3.2,0.7-5.6-0.8-7.2-3.7c-0.1-0.3-0.4-0.5-0.6-0.8v-4.1c3.2-9.8,6.3-19.5,9.5-29.3H23.7z"/>
	<path id="XMLID_87_" class="st0" d="M95.6,41.3c-1.7,2.6-3.6,5-7.2,4.6c-2.9-0.4-5-2.1-5.6-5.1c-2.2-10.2-4.4-20.3-6.5-30.5
		c-0.2-0.8-0.2-1.6-0.3-2.3h10.2c0.5,1.7,0.9,3.5,1.5,5.2c2.7,8.1,5.4,16.1,8,24.1V41.3z"/>
	<path id="XMLID_86_" class="st1" d="M95.6,41.3c-1.7,2.6-3.6,5-7.2,4.6c-2.9-0.4-5-2.1-5.6-5.1c-2.2-10.2-4.4-20.3-6.5-30.5
		c-0.2-0.8-0.2-1.6-0.3-2.3h10.2c0.5,1.7,0.9,3.5,1.5,5.2c2.7,8.1,5.4,16.1,8,24.1V41.3z"/>
	<path id="XMLID_85_" class="st0" d="M65.5,7.9c1.2,9.9,2.5,19.8,3.7,29.6c0.7,5.7-3.8,10-8.5,7.8c-1.8-0.8-3.9-3.1-4-4.8
		c-0.8-10.8-1-21.7-1.4-32.6H65.5z"/>
	<path id="XMLID_84_" class="st1" d="M65.5,7.9c1.2,9.9,2.5,19.8,3.7,29.6c0.7,5.7-3.8,10-8.5,7.8c-1.8-0.8-3.9-3.1-4-4.8
		c-0.8-10.8-1-21.7-1.4-32.6H65.5z"/>
	<path id="XMLID_83_" class="st0" d="M44.3,7.9c-0.4,10.8-0.7,21.5-1.3,32.3c-0.2,3.6-3.7,6.2-7.1,5.7c-3.7-0.6-6.1-3.9-5.6-8
		c0.9-7,1.9-13.9,2.8-20.9c0.4-3,0.7-6.1,1-9.1H44.3z"/>
	<path id="XMLID_82_" class="st1" d="M44.3,7.9c-0.4,10.8-0.7,21.5-1.3,32.3c-0.2,3.6-3.7,6.2-7.1,5.7c-3.7-0.6-6.1-3.9-5.6-8
		c0.9-7,1.9-13.9,2.8-20.9c0.4-3,0.7-6.1,1-9.1H44.3z"/>
	<path id="XMLID_81_" class="st0" d="M57.5,77.8c0-1.6-0.1-3.2,0.1-4.8c0.1-0.4,1.1-0.7,1.6-1.1c0.2,1.6,0.5,3.3,0.5,4.9
		c0,0.5-1,1.1-1.5,1.6C58,78.2,57.7,78,57.5,77.8"/>
	<path id="XMLID_80_" class="st1" d="M57.5,77.8c0-1.6-0.1-3.2,0.1-4.8c0.1-0.4,1.1-0.7,1.6-1.1c0.2,1.6,0.5,3.3,0.5,4.9
		c0,0.5-1,1.1-1.5,1.6C58,78.2,57.7,78,57.5,77.8z"/>
</g>
</svg>
